<svg xmlns="http://www.w3.org/2000/svg" width="640" height="80" viewBox="0 0 640 80"><rect width="16" height="16" x="16" y="0" fill="#000"/><rect width="16" height="16" x="32" y="0" fill="#000"/><rect width="16" height="16" x="0" y="16" fill="#000"/><rect width="16" height="16" x="48" y="16" fill="#000"/><rect width="16" height="16" x="0" y="32" fill="#000"/><rect width="16" height="16" x="48" y="32" fill="#000"/><rect width="16" height="16" x="0" y="48" fill="#000"/><rect width="16" height="16" x="48" y="48" fill="#000"/><rect width="16" height="16" x="16" y="64" fill="#000"/><rect width="16" height="16" x="32" y="64" fill="#000"/><rect width="16" height="16" x="80" y="0" fill="#000"/><rect width="16" height="16" x="96" y="0" fill="#000"/><rect width="16" height="16" x="112" y="0" fill="#000"/><rect width="16" height="16" x="80" y="16" fill="#000"/><rect width="16" height="16" x="128" y="16" fill="#000"/><rect width="16" height="16" x="80" y="32" fill="#000"/><rect width="16" height="16" x="96" y="32" fill="#000"/><rect width="16" height="16" x="112" y="32" fill="#000"/><rect width="16" height="16" x="128" y="32" fill="#000"/><rect width="16" height="16" x="80" y="48" fill="#000"/><rect width="16" height="16" x="80" y="64" fill="#000"/><rect width="16" height="16" x="160" y="0" fill="#000"/><rect width="16" height="16" x="176" y="0" fill="#000"/><rect width="16" height="16" x="192" y="0" fill="#000"/><rect width="16" height="16" x="208" y="0" fill="#000"/><rect width="16" height="16" x="160" y="16" fill="#000"/><rect width="16" height="16" x="160" y="32" fill="#000"/><rect width="16" height="16" x="176" y="32" fill="#000"/><rect width="16" height="16" x="192" y="32" fill="#000"/><rect width="16" height="16" x="160" y="48" fill="#000"/><rect width="16" height="16" x="160" y="64" fill="#000"/><rect width="16" height="16" x="176" y="64" fill="#000"/><rect width="16" height="16" x="192" y="64" fill="#000"/><rect width="16" height="16" x="208" y="64" fill="#000"/><rect width="16" height="16" x="240" y="0" fill="#000"/><rect width="16" height="16" x="288" y="0" fill="#000"/><rect width="16" height="16" x="240" y="16" fill="#000"/><rect width="16" height="16" x="256" y="16" fill="#000"/><rect width="16" height="16" x="288" y="16" fill="#000"/><rect width="16" height="16" x="240" y="32" fill="#000"/><rect width="16" height="16" x="272" y="32" fill="#000"/><rect width="16" height="16" x="288" y="32" fill="#000"/><rect width="16" height="16" x="240" y="48" fill="#000"/><rect width="16" height="16" x="288" y="48" fill="#000"/><rect width="16" height="16" x="240" y="64" fill="#000"/><rect width="16" height="16" x="288" y="64" fill="#000"/><rect width="16" height="16" x="336" y="0" fill="#000"/><rect width="16" height="16" x="352" y="0" fill="#000"/><rect width="16" height="16" x="368" y="0" fill="#000"/><rect width="16" height="16" x="320" y="16" fill="#000"/><rect width="16" height="16" x="336" y="32" fill="#000"/><rect width="16" height="16" x="352" y="32" fill="#000"/><rect width="16" height="16" x="368" y="48" fill="#000"/><rect width="16" height="16" x="320" y="64" fill="#000"/><rect width="16" height="16" x="336" y="64" fill="#000"/><rect width="16" height="16" x="352" y="64" fill="#000"/><rect width="16" height="16" x="400" y="0" fill="#000"/><rect width="16" height="16" x="416" y="0" fill="#000"/><rect width="16" height="16" x="432" y="0" fill="#000"/><rect width="16" height="16" x="400" y="16" fill="#000"/><rect width="16" height="16" x="448" y="16" fill="#000"/><rect width="16" height="16" x="400" y="32" fill="#000"/><rect width="16" height="16" x="416" y="32" fill="#000"/><rect width="16" height="16" x="432" y="32" fill="#000"/><rect width="16" height="16" x="448" y="32" fill="#000"/><rect width="16" height="16" x="400" y="48" fill="#000"/><rect width="16" height="16" x="400" y="64" fill="#000"/><rect width="16" height="16" x="480" y="0" fill="#000"/><rect width="16" height="16" x="496" y="0" fill="#000"/><rect width="16" height="16" x="512" y="0" fill="#000"/><rect width="16" height="16" x="528" y="0" fill="#000"/><rect width="16" height="16" x="480" y="16" fill="#000"/><rect width="16" height="16" x="480" y="32" fill="#000"/><rect width="16" height="16" x="496" y="32" fill="#000"/><rect width="16" height="16" x="512" y="32" fill="#000"/><rect width="16" height="16" x="480" y="48" fill="#000"/><rect width="16" height="16" x="480" y="64" fill="#000"/><rect width="16" height="16" x="496" y="64" fill="#000"/><rect width="16" height="16" x="512" y="64" fill="#000"/><rect width="16" height="16" x="528" y="64" fill="#000"/><rect width="16" height="16" x="576" y="0" fill="#000"/><rect width="16" height="16" x="592" y="0" fill="#000"/><rect width="16" height="16" x="560" y="16" fill="#000"/><rect width="16" height="16" x="560" y="32" fill="#000"/><rect width="16" height="16" x="560" y="48" fill="#000"/><rect width="16" height="16" x="576" y="64" fill="#000"/><rect width="16" height="16" x="592" y="64" fill="#000"/></svg>